/* XPM */
static char* picture[] = {
"25 50 2 1",
" 	c b'#000000'",
"X	c b'#ff0000'",
"                         ",
"                         ",
"                         ",
"                         ",
"                         ",
"                         ",
"   X                  XX ",
"  XXX                XXXX",
"  XXXX              XXXXX",
"  XXXXX             XXXXX",
"  XXXXX             XXXXX",
"  XXXXX             XXXXX",
"  XXXXX             XXXXX",
"  XXXXX             XXXXX",
"  XXXXX             XXXXX",
"  XXXXX             XXXXX",
"  XXXXX             XXXXX",
"  XXXXX             XXXXX",
"  XXXXX             XXXXX",
"  XXXXX             XXXXX",
"  XXXXX             XXXXX",
"  XXXXX             XXXXX",
"  XXXXX             XXXXX",
"  XXXXXXXXXXXXXXXXXXXXXXX",
"  XXXXXXXXXXXXXXXXXXXXXX ",
"     XXXXXXXXXXXXXXXXXXX ",
"     XXXXXXXXXXXXXXXXXXXX",
"      XXXXXXXXXXXXXXXXXXX",
"                    XXXXX",
"                    XXXXX",
"                    XXXXX",
"                    XXXXX",
"                    XXXXX",
"                    XXXXX",
"                    XXXXX",
"                    XXXXX",
"                    XXXXX",
"                    XXXXX",
"                    XXXXX",
"                    XXXXX",
"                    XXXXX",
"                    XXXXX",
"                     XXXX",
"                      XXX",
"                         ",
"                         ",
"                         ",
"                         ",
"                         ",
"                         "};