/* XPM */
static char* picture[] = {
"25 50 2 1",
" 	c b'#000000'",
"X	c b'#ff0000'",
"                         ",
"                         ",
"                         ",
"                         ",
"                         ",
"     XXXXXXXXXXXXXXXXX   ",
"    XXXXXXXXXXXXXXXXXXX  ",
"   XXXXXXXXXXXXXXXXXXXXX ",
"  XXXXXXXXXXXXXXXXXXXXXXX",
"  XXXXXXXXXXXXXXXXXXXXXXX",
"  XXXXX             XXXXX",
"  XXXXX             XXXXX",
"  XXXXX             XXXXX",
"  XXXXX             XXXXX",
"  XXXXX             XXXXX",
"  XXXXX             XXXXX",
"  XXXXX             XXXXX",
"  XXXXX             XXXXX",
"  XXXXX             XXXXX",
"  XXXXX             XXXXX",
"  XXXXX             XXXXX",
"  XXXXX             XXXXX",
"  XXXXX             XXXXX",
"  XXXXXXXXXXXXXXXXXXXXXXX",
"  XXXXXXXXXXXXXXXXXXXXXX ",
"   X XXXXXXXXXXXXXXXXXXX ",
"  XXXXXXXXXXXXXXXXXXXXXXX",
"  XXXXXXXXXXXXXXXXXXXXXXX",
"  XXXXX             XXXXX",
"  XXXXX             XXXXX",
"  XXXXX             XXXXX",
"  XXXXX             XXXXX",
"  XXXXX             XXXXX",
"  XXXXX             XXXXX",
"  XXXXX             XXXXX",
"  XXXXX             XXXXX",
"  XXXXX             XXXXX",
"  XXXXX             XXXXX",
"  XXXXX             XXXXX",
"  XXXXX             XXXXX",
"  XXXXXXXXXXXXXXXXXXXXXXX",
"  XXXXXXXXXXXXXXXXXXXXXXX",
"  XXXXXXXXXXXXXXXXXXXXXXX",
"    XXXXXXXXXXXXXXXXXXX  ",
"    XXXXXXXXXXXXXXXXXX   ",
"                         ",
"                         ",
"                         ",
"                         ",
"                         "};